<svg width="112" height="121" viewBox="0 0 112 121" fill="none" xmlns="http://www.w3.org/2000/svg">
<path d="M48.0459 33.0625L45.533 34.7013L48.0422 38.5487L50.5565 34.7047L48.0459 33.0625ZM67.71 3V0H66.0875L65.1994 1.35779L67.71 3ZM90.1504 3L92.6548 4.6516L95.7224 0H90.1504V3ZM27.9297 97.3496V100.35H29.5449L30.4341 99.0012L27.9297 97.3496ZM6 97.3496L3.48932 95.7075L0.453183 100.35H6V97.3496ZM36.9004 50.1045L39.4111 51.7466L40.4867 50.102L39.4088 48.459L36.9004 50.1045ZM6 3V0H0.444116L3.49156 4.64553L6 3ZM28.4404 3L30.9533 1.36123L30.0655 0H28.4404V3ZM48.0459 33.0625L50.5565 34.7047L70.2206 4.64221L67.71 3L65.1994 1.35779L45.5353 31.4203L48.0459 33.0625ZM67.71 3V6H90.1504V3V0H67.71V3ZM90.1504 3L87.646 1.3484L25.4252 95.698L27.9297 97.3496L30.4341 99.0012L92.6548 4.6516L90.1504 3ZM27.9297 97.3496V94.3496H6V97.3496V100.35H27.9297V97.3496ZM6 97.3496L8.51068 98.9917L39.4111 51.7466L36.9004 50.1045L34.3897 48.4624L3.48932 95.7075L6 97.3496ZM36.9004 50.1045L39.4088 48.459L8.50844 1.35447L6 3L3.49156 4.64553L34.392 51.75L36.9004 50.1045ZM6 3V6H28.4404V3V0H6V3ZM28.4404 3L25.9276 4.63877L45.533 34.7013L48.0459 33.0625L50.5588 31.4237L30.9533 1.36123L28.4404 3Z" fill="white"/>
<path d="M83.56 117.598L52.96 70.6784L64.18 53.8484L106 117.598H83.56Z" stroke="#1C77D7" stroke-width="6"/>
</svg>
